<svg width="154" height="154" viewBox="0 0 154 154" fill="none" xmlns="http://www.w3.org/2000/svg">
<mask id="mask0_6:299" style="mask-type:alpha" maskUnits="userSpaceOnUse" x="0" y="0" width="154" height="154">
<circle cx="77" cy="77" r="77" fill="#C4C4C4"/>
</mask>
<g mask="url(#mask0_6:299)">
<circle cx="77" cy="77" r="77" fill="#EFF5FF"/>
<path d="M64.5036 108.496C69.1036 106.796 72.0036 102.996 77.5036 103.496C87.2036 104.396 94.1036 115.296 103.504 107.896C114.804 98.8961 111.804 44.8961 106.904 32.6961C102.704 22.2961 95.1036 32.4961 84.1036 28.9961C71.4036 24.9961 60.4036 34.9961 53.8036 45.3961C47.0036 56.2961 43.4036 70.0961 44.4036 82.7961C45.4036 94.4961 47.5036 114.696 64.5036 108.496Z" fill="#6078BA"/>
<path d="M21.0036 165.596H44.9036L49.2036 148.396C49.2036 148.396 52.7036 122.296 34.7036 121.896C34.7036 121.896 25.4036 128.396 22.9036 143.796C22.9036 143.696 20.9036 155.996 21.0036 165.596Z" fill="#58C3E7"/>
<path d="M103.904 165.596L100.704 152.596C100.704 152.596 97.2036 126.496 115.204 126.096C115.204 126.096 126.004 133.896 125.004 165.596H103.904Z" fill="#58C3E7"/>
<path d="M64.1036 83.9961H85.9036V115.896H64.1036V83.9961Z" fill="#B6E1F8"/>
<path d="M64.1036 96.9961V83.9961H85.9036V102.696C78.7036 102.496 70.2036 101.196 64.1036 96.9961Z" fill="#83D0F3"/>
<path d="M114.704 126.096C109.804 118.496 102.104 116.496 102.104 116.496L83.7036 109.696H66.1036L43.6036 116.496C43.6036 116.496 35.9036 118.496 31.0036 126.096H114.704Z" fill="#B6E1F8"/>
<path d="M110.204 165.596H37.7035L38.2035 151.996L27.5035 135.896C29.9035 120.196 43.7035 116.496 43.7035 116.496L61.4035 111.496C61.4035 111.496 60.3035 117.296 75.0035 117.296C75.0035 117.296 86.7035 117.296 88.1035 111.396L102.104 116.596C102.104 116.596 112.404 119.696 118.004 130.096L110.204 152.096V165.596Z" fill="#58C3E7"/>
<path d="M61.7036 86.5961C62.4036 88.2961 63.5036 89.8961 64.9036 91.2961C68.5036 94.7961 72.7036 97.5961 77.4036 99.4961C83.1036 101.796 91.7036 102.096 96.2036 97.3961C99.9036 93.5961 101.904 87.7961 103.504 82.8961C106.604 73.2961 106.604 62.7961 105.804 52.8961C105.604 50.5961 105.404 48.3961 105.004 46.0961C101.504 24.3961 82.9036 24.3961 82.9036 24.3961C68.9036 23.7961 56.0036 30.3961 53.9036 45.1961C53.1036 50.8961 54.2036 56.9961 54.4036 62.5961C54.6036 66.7961 55.1036 70.8961 56.5036 74.8961C57.8036 78.9961 60.0036 82.6961 61.7036 86.5961Z" fill="#B6E1F8"/>
<path d="M107.304 65.6961C112.504 49.3961 108.304 30.2961 102.004 24.3961C84.2036 7.3961 51.4036 13.8961 41.4036 40.3961C38.3036 48.5961 39.8036 79.0961 41.2036 88.4961C43.1036 101.096 47.7036 109.696 57.2036 109.696C56.9036 99.2961 57.7036 87.8961 56.8036 75.1961C55.9036 62.5961 57.6036 62.2961 68.0036 56.4961C73.2036 53.5961 76.2036 50.5961 79.5036 45.7961C83.5036 39.9961 80.5036 37.8961 88.4036 38.1961C88.4036 38.0961 106.804 37.4961 107.304 65.6961Z" fill="#6078BA"/>
<path d="M59.9036 69.9961C59.9036 69.9961 58.0036 62.2961 52.1036 65.4961C52.1036 65.4961 49.4036 66.8961 51.3036 72.1961C51.3036 72.1961 54.1036 79.7961 59.9036 76.9961V69.9961Z" fill="#B6E1F8"/>
</g>
</svg>
