<svg width="154" height="154" viewBox="0 0 154 154" fill="none" xmlns="http://www.w3.org/2000/svg">
<mask id="mask0_6:257" style="mask-type:alpha" maskUnits="userSpaceOnUse" x="0" y="0" width="154" height="154">
<circle cx="77" cy="77" r="77" fill="#C4C4C4"/>
</mask>
<g mask="url(#mask0_6:257)">
<circle cx="77" cy="77" r="77" fill="#EFF5FF"/>
<path d="M38.6968 39.2444C38.6968 39.2444 40.9835 37.1407 45.2824 40.8908L47.2947 37.7809C47.2947 37.7809 42.447 33.9393 38.6968 39.2444Z" fill="#6078BA"/>
<path d="M46.5628 30.0978C46.5628 30.0978 43.9103 33.3906 47.7519 37.2322L45.1908 39.8847C45.1908 39.8847 39.2455 32.5674 46.5628 30.0978Z" fill="#6078BA"/>
<path d="M35.5866 119.827C40.2514 112.601 47.6602 110.589 47.6602 110.589L65.3133 104.003H82.2347L99.8877 110.589C99.8877 110.589 107.297 112.601 111.961 119.827H35.5866Z" fill="#B6E1F8"/>
<path d="M96.8693 154.218H124.218C124.218 149.553 123.943 142.876 123.943 142.876C122.297 114.887 101.991 110.497 101.991 110.497C86.0762 106.655 94.7656 131.26 94.7656 131.26C94.3082 137.205 95.1314 145.163 96.8693 154.218Z" fill="#58C3E7"/>
<path d="M85.3447 87.4474H62.2036V110.04H85.3447V87.4474Z" fill="#B6E1F8"/>
<path d="M85.4362 97.9661V87.4474H62.2036V92.661C68.8807 98.149 76.8383 98.8807 85.4362 97.9661Z" fill="#83D0F3"/>
<path d="M110.132 154.218C110.589 142.053 110.406 138.669 110.315 134.553C110.041 125.315 108.12 117.449 101.991 110.589L85.436 105.192C85.436 105.192 88.9117 111.32 73.7283 111.32C73.7283 111.32 63.7584 110.954 62.2949 105.192L45.465 110.589C45.465 110.589 31.1047 114.156 28.6351 129.248L37.0501 144.797L36.7757 154.31H110.132V154.218Z" fill="#6078BA"/>
<path d="M103.455 59.1842C104.096 53.9706 102.998 49.0314 103.089 43.9092C103.089 40.4335 102.449 35.3113 98.1502 34.854C92.2048 34.2137 90.3755 44.458 90.0096 48.9399C89.5523 55.0682 91.0158 61.6538 92.2048 67.5991C92.6622 69.7943 92.5707 74.0932 95.0403 75.0994C97.144 76.014 99.2478 73.9103 100.345 72.3554C102.906 68.5138 102.906 63.5746 103.455 59.1842Z" fill="#6078BA"/>
<path d="M99.065 84.3376C96.6868 93.4843 92.5708 96.0453 92.5708 96.0453L86.9913 97.143C83.79 96.7771 78.302 95.4051 78.302 95.4051C65.6796 91.1061 62.0209 89.9171 60.0086 85.1608C60.0086 84.8864 50.1302 50.5864 50.1302 50.5864C48.4838 32.9333 66.9601 29.2746 69.7956 28.8173C72.5396 28.177 90.1927 23.3293 95.3148 40.2506C95.3148 40.2506 102.998 59.8245 99.065 84.3376Z" fill="#B6E1F8"/>
<path d="M104.827 23.1462C105.833 28.6342 104.918 36.226 100.619 39.7017C96.0461 43.5433 92.0216 42.4457 86.5336 43.7262C80.7712 45.0068 74.8258 45.5556 69.0634 46.6532C65.0389 47.4764 60.2826 47.9337 58.4533 52.2326C55.9837 57.9036 55.5263 65.3124 57.1727 70.8919C58.5447 75.5567 59.0021 80.0385 60.4655 85.9839C55.2519 81.5935 51.1359 75.2823 51.1359 75.2823C48.4834 70.7089 48.4834 70.7089 45.5565 62.6599C43.8186 57.9951 42.3551 53.879 42.0807 49.0313C41.8063 42.8116 44.8247 40.0676 48.1175 34.3966C51.2274 29.0001 55.6178 25.2499 61.3802 23.6035C61.3802 23.6035 90.3752 25.25 89.8264 18.5729C89.8264 18.5729 96.7779 20.3107 95.4973 24.9755C95.4973 24.9755 102.815 23.6035 101.26 18.5729C101.351 18.5729 104.278 19.9449 104.827 23.1462Z" fill="#6078BA"/>
<path d="M58.2706 69.6114C58.2706 69.6114 55.1607 62.8428 50.2215 66.8674C50.2215 66.8674 48.0263 68.6052 50.7703 73.1786C50.7703 73.1786 54.7949 79.7642 59.5511 76.1055L58.2706 69.6114Z" fill="#B6E1F8"/>
<path d="M57.8132 53.7876C57.8132 53.7876 57.8132 65.9527 60.0999 72.4468L57.7217 72.9042C57.7217 72.9042 56.4412 64.5807 52.1423 64.4892L57.8132 53.7876Z" fill="#6078BA"/>
<path d="M52.0507 154.218H26.5314C26.5314 154.218 26.6229 148.181 26.6229 147.724C26.8058 141.779 27.1717 135.742 28.2693 129.888C29.8242 121.473 33.8488 114.064 42.904 111.869C47.02 110.863 50.6787 113.424 52.8739 116.717C52.8739 116.808 56.8984 121.839 52.0507 154.218Z" fill="#58C3E7"/>
</g>
</svg>
