<svg width="199" height="199" viewBox="0 0 199 199" fill="none" xmlns="http://www.w3.org/2000/svg">
<mask id="mask0_6:146" style="mask-type:alpha" maskUnits="userSpaceOnUse" x="0" y="0" width="199" height="199">
<circle cx="99.5" cy="99.5" r="99.5" fill="#C4C4C4"/>
</mask>
<g mask="url(#mask0_6:146)">
<circle cx="99.5" cy="99.5" r="99.5" fill="#EFF5FF"/>
<path d="M160.635 93.8953C160.635 92.6437 160.91 91.6051 161.459 90.7796C162.009 89.9275 162.794 89.0087 163.814 88.0234C164.468 87.3843 164.939 86.865 165.227 86.4656C165.541 86.0661 165.698 85.64 165.698 85.1873C165.698 84.6015 165.449 84.1488 164.952 83.8292C164.455 83.483 163.827 83.3099 163.068 83.3099C162.231 83.3099 161.446 83.5629 160.713 84.0689C159.981 84.5482 159.405 85.2006 158.986 86.0262L152 82.4711C153.047 80.4472 154.59 78.8627 156.631 77.7176C158.699 76.5725 161.237 76 164.246 76C167.438 76 170.028 76.6657 172.017 77.9972C174.006 79.3287 175 81.2062 175 83.6295C175 84.7479 174.804 85.7332 174.411 86.5854C174.045 87.4109 173.6 88.1166 173.077 88.7025C172.553 89.2617 171.886 89.8875 171.075 90.5799C170.238 91.3255 169.636 91.9247 169.27 92.3774C168.903 92.8301 168.72 93.3361 168.72 93.8953H160.635ZM164.677 105C163.16 105 161.917 104.534 160.949 103.602C159.981 102.67 159.497 101.538 159.497 100.207C159.497 98.8485 159.981 97.73 160.949 96.8512C161.917 95.9458 163.16 95.4931 164.677 95.4931C166.195 95.4931 167.438 95.9458 168.406 96.8512C169.374 97.73 169.858 98.8485 169.858 100.207C169.858 101.538 169.374 102.67 168.406 103.602C167.438 104.534 166.195 105 164.677 105Z" fill="#B6E1F8"/>
<path d="M35.6348 122.895C35.6348 121.644 35.9096 120.605 36.459 119.78C37.0085 118.927 37.7935 118.009 38.814 117.023C39.4681 116.384 39.9391 115.865 40.227 115.466C40.541 115.066 40.698 114.64 40.698 114.187C40.698 113.601 40.4494 113.149 39.9522 112.829C39.4551 112.483 38.8271 112.31 38.0683 112.31C37.2309 112.31 36.446 112.563 35.7133 113.069C34.9807 113.548 34.405 114.201 33.9863 115.026L27 111.471C28.0466 109.447 29.5904 107.863 31.6314 106.718C33.6985 105.573 36.2366 105 39.2457 105C42.438 105 45.0284 105.666 47.0171 106.997C49.0057 108.329 50 110.206 50 112.629C50 113.748 49.8038 114.733 49.4113 115.585C49.0449 116.411 48.6001 117.117 48.0768 117.702C47.5535 118.262 46.8862 118.888 46.0751 119.58C45.2378 120.326 44.636 120.925 44.2696 121.377C43.9033 121.83 43.7201 122.336 43.7201 122.895H35.6348ZM39.6775 134C38.1598 134 36.917 133.534 35.9488 132.602C34.9807 131.67 34.4966 130.538 34.4966 129.207C34.4966 127.848 34.9807 126.73 35.9488 125.851C36.917 124.946 38.1598 124.493 39.6775 124.493C41.1951 124.493 42.438 124.946 43.4061 125.851C44.3743 126.73 44.8584 127.848 44.8584 129.207C44.8584 130.538 44.3743 131.67 43.4061 132.602C42.438 133.534 41.1951 134 39.6775 134Z" fill="#B6E1F8"/>
<path d="M38.8805 46.4904C38.8805 45.7567 39.0358 45.1478 39.3464 44.6639C39.657 44.1644 40.1007 43.6258 40.6775 43.0482C41.0472 42.6736 41.3134 42.3691 41.4761 42.135C41.6536 41.9008 41.7423 41.6511 41.7423 41.3857C41.7423 41.0422 41.6018 40.7769 41.3208 40.5895C41.0398 40.3866 40.6849 40.2851 40.256 40.2851C39.7827 40.2851 39.339 40.4334 38.9249 40.73C38.5108 41.011 38.1854 41.3935 37.9488 41.8774L34 39.7934C34.5916 38.607 35.4642 37.6781 36.6177 37.0069C37.7861 36.3356 39.2207 36 40.9215 36C42.7258 36 44.19 36.3903 45.314 37.1708C46.438 37.9513 47 39.0519 47 40.4725C47 41.1281 46.8891 41.7057 46.6672 42.2052C46.4602 42.6892 46.2088 43.1028 45.913 43.4463C45.6172 43.7741 45.24 44.141 44.7816 44.5468C44.3083 44.9839 43.9681 45.3352 43.7611 45.6006C43.554 45.8659 43.4505 46.1625 43.4505 46.4904H38.8805ZM41.1655 53C40.3077 53 39.6052 52.7268 39.058 52.1804C38.5108 51.6341 38.2372 50.9706 38.2372 50.1901C38.2372 49.3939 38.5108 48.7383 39.058 48.2231C39.6052 47.6924 40.3077 47.427 41.1655 47.427C42.0233 47.427 42.7258 47.6924 43.273 48.2231C43.8203 48.7383 44.0939 49.3939 44.0939 50.1901C44.0939 50.9706 43.8203 51.6341 43.273 52.1804C42.7258 52.7268 42.0233 53 41.1655 53Z" fill="#B6E1F8"/>
<path d="M50.0044 50.7119C50.0044 50.7119 52.9592 47.9934 58.5144 52.8394L61.1146 48.8208C61.1146 48.8208 54.8504 43.8566 50.0044 50.7119Z" fill="#6078BA"/>
<path d="M60.1692 38.8925C60.1692 38.8925 56.7416 43.1474 61.7057 48.1116L58.3963 51.5392C58.3963 51.5392 50.7137 42.0837 60.1692 38.8925Z" fill="#6078BA"/>
<path d="M45.9856 154.841C52.0135 145.503 61.5872 142.903 61.5872 142.903L84.3987 134.393H106.265L129.076 142.903C129.076 142.903 138.65 145.503 144.678 154.841H45.9856Z" fill="#B6E1F8"/>
<path d="M125.176 199.282H160.516C160.516 193.254 160.161 184.626 160.161 184.626C158.034 148.458 131.795 142.785 131.795 142.785C111.229 137.821 122.457 169.615 122.457 169.615C121.866 177.298 122.93 187.581 125.176 199.282Z" fill="#58C3E7"/>
<path d="M110.283 113H80.3801V142.194H110.283V113Z" fill="#B6E1F8"/>
<path d="M110.401 126.592V113H80.3801V119.737C89.0083 126.829 99.2912 127.774 110.401 126.592Z" fill="#83D0F3"/>
<path d="M142.314 199.282C142.905 183.562 142.668 179.189 142.55 173.87C142.196 161.933 139.714 151.768 131.795 142.903L110.401 135.93C110.401 135.93 114.893 143.849 95.2726 143.849C95.2726 143.849 82.3895 143.376 80.4983 135.93L58.7506 142.903C58.7506 142.903 40.1942 147.513 37.0029 167.015L47.8768 187.108L47.5222 199.4H142.314V199.282Z" fill="#6078BA"/>
<path d="M133.686 76.4782C134.513 69.7411 133.095 63.3586 133.213 56.7398C133.213 52.2484 132.386 45.6295 126.831 45.0386C119.148 44.2112 116.784 57.4489 116.311 63.2405C115.72 71.1595 117.611 79.6694 119.148 87.352C119.739 90.1887 119.621 95.7438 122.812 97.044C125.53 98.2259 128.249 95.5074 129.667 93.4981C132.977 88.534 132.977 82.1515 133.686 76.4782Z" fill="#6078BA"/>
<path d="M128.013 108.982C124.939 120.801 119.621 124.11 119.621 124.11L112.411 125.529C108.274 125.056 101.182 123.283 101.182 123.283C84.8717 117.728 80.1439 116.191 77.5436 110.045C77.5436 109.691 64.7787 65.3679 64.7787 65.3679C62.6512 42.5565 86.5264 37.8287 90.1904 37.2377C93.7362 36.4104 116.548 30.1461 123.167 52.012C123.167 52.012 133.095 77.3055 128.013 108.982Z" fill="#B6E1F8"/>
<path d="M135.459 29.9097C136.759 37.0013 135.577 46.8115 130.022 51.3028C124.112 56.267 118.911 54.8487 111.82 56.5034C104.374 58.1581 96.6909 58.8673 89.2447 60.2856C84.0441 61.3493 77.8981 61.9403 75.5342 67.4954C72.3429 74.8234 71.752 84.3972 73.8795 91.607C75.6524 97.6349 76.2433 103.426 78.1344 111.109C71.3974 105.436 66.0786 97.2803 66.0786 97.2803C62.651 91.3706 62.651 91.3706 58.8688 80.9695C56.6231 74.9416 54.732 69.6229 54.3774 63.3586C54.0229 55.3214 57.9233 51.7756 62.1782 44.4476C66.1968 37.4741 71.8702 32.6282 79.3164 30.5007C79.3164 30.5007 116.784 32.6282 116.075 24C116.075 24 125.057 26.2457 123.403 32.2736C123.403 32.2736 132.858 30.5007 130.849 24C130.967 24 134.749 25.7729 135.459 29.9097Z" fill="#6078BA"/>
<path d="M75.2978 89.9523C75.2978 89.9523 71.2792 81.2059 64.8967 86.4065C64.8967 86.4065 62.0601 88.6522 65.6059 94.5619C65.6059 94.5619 70.8064 103.072 76.9525 98.3441L75.2978 89.9523Z" fill="#B6E1F8"/>
<path d="M74.7069 69.5047C74.7069 69.5047 74.7069 85.2245 77.6618 93.6163L74.5887 94.2073C74.5887 94.2073 72.934 83.4516 67.3789 83.3334L74.7069 69.5047Z" fill="#6078BA"/>
<path d="M67.2606 199.282H34.2844C34.2844 199.282 34.4026 191.481 34.4026 190.89C34.639 183.207 35.1118 175.407 36.5301 167.842C38.5394 156.968 43.7399 147.395 55.4412 144.558C60.7599 143.258 65.4877 146.567 68.3243 150.822C68.3243 150.94 73.5249 157.441 67.2606 199.282Z" fill="#58C3E7"/>
</g>
</svg>
